<svg width="25" height="24" viewBox="0 0 25 24" fill="none" xmlns="http://www.w3.org/2000/svg">
<g clip-path="url(#clip0_1775_20598)">
<path d="M24.4062 0H0.40625V24H24.4062V0Z" fill="white" fill-opacity="0.01"/>
<path d="M17.4062 3H7.40625C5.19711 3 3.40625 4.79086 3.40625 7V17C3.40625 19.2092 5.19711 21 7.40625 21H17.4062C19.6154 21 21.4062 19.2092 21.4062 17V7C21.4062 4.79086 19.6154 3 17.4062 3Z" stroke="#A3ADBB" stroke-width="2" stroke-linejoin="round"/>
<path d="M12.4062 16C14.6154 16 16.4062 14.2092 16.4062 12C16.4062 9.79085 14.6154 8 12.4062 8C10.1971 8 8.40625 9.79085 8.40625 12C8.40625 14.2092 10.1971 16 12.4062 16Z" stroke="#A3ADBB" stroke-width="2" stroke-linejoin="round"/>
<path d="M17.9062 7.5C18.4585 7.5 18.9062 7.0523 18.9062 6.5C18.9062 5.9477 18.4585 5.5 17.9062 5.5C17.354 5.5 16.9062 5.9477 16.9062 6.5C16.9062 7.0523 17.354 7.5 17.9062 7.5Z" fill="#A3ADBB"/>
</g>
<defs>
<clipPath id="clip0_1775_20598">
<rect width="24" height="24" fill="white" transform="translate(0.40625)"/>
</clipPath>
</defs>
</svg>
