<svg width="34" height="34" viewBox="0 0 34 34" fill="none" xmlns="http://www.w3.org/2000/svg">
<path d="M17.7279 17.0352L6.20898 28.2502C6.57732 29.5004 7.75315 30.4567 9.15069 30.4567C9.73861 30.4567 10.2536 30.3093 10.6949 30.0154L23.5653 22.7344L17.7279 17.0352Z" fill="#E6E6E6" stroke="#82B840" stroke-linecap="round" stroke-linejoin="round"/>
<path d="M29.0061 14.3541L23.4911 11.1921L17.7274 17.0387L23.564 22.738L29.0805 19.6496C30.0368 19.1347 30.6984 18.1055 30.6984 17.0019C30.6247 15.8983 29.9624 14.8691 29.0061 14.3541ZM6.20843 5.75C6.13477 5.97029 6.13477 6.26496 6.13477 6.55892V27.5185C6.13477 27.8125 6.13477 28.0335 6.20843 28.3274L17.7274 17.0387L6.20843 5.75Z" fill="#E6E6E6"/>
<path d="M17.7274 17.0387L23.4911 11.1921L29.0061 14.3541C29.9624 14.8691 30.6247 15.8983 30.6984 17.0019C30.6984 18.1055 30.0368 19.1347 29.0805 19.6496L23.564 22.738L17.7274 17.0387ZM17.7274 17.0387L6.20843 28.3274C6.13477 28.0335 6.13477 27.8125 6.13477 27.5185V6.55892C6.13477 6.26496 6.13477 5.97029 6.20843 5.75L17.7274 17.0387Z" stroke="#82B840" stroke-linecap="round" stroke-linejoin="round"/>
<path d="M17.7279 17.0381L23.4916 11.1916L10.7685 3.98426C10.3279 3.6903 9.74003 3.54297 9.15069 3.54297C7.75315 3.54297 6.50294 4.49922 6.20898 5.74943L17.7279 17.0381Z" fill="#E6E6E6" stroke="#82B840" stroke-linecap="round" stroke-linejoin="round"/>
</svg>
