<svg width="22" height="20" viewBox="0 0 22 20" fill="none" xmlns="http://www.w3.org/2000/svg">
<path d="M1.90625 15.8811C2.87068 16.4143 9.85195 20.4386 14.8162 17.337C19.7804 14.2353 19.5065 8.89165 19.5065 6.443C19.9562 5.5009 20.9062 5.02195 20.9062 2.4719C19.9731 3.3339 19.0456 3.6272 18.1238 3.3518C17.2206 1.97478 15.978 1.36573 14.396 1.52467C12.0229 1.76307 11.1547 4.09125 11.4102 7.10335C7.7512 8.9537 4.882 5.762 3.40334 3.3518C2.90929 5.24995 2.4329 7.5288 3.40334 10.0497C4.0503 11.7303 5.6055 13.1512 8.06895 14.3123C5.5724 15.6654 3.51816 16.1883 1.90625 15.8811Z" stroke="#A3ADBB" stroke-width="2" stroke-linejoin="round"/>
</svg>
